<?xml version="1.0"?>

<svg width="100%" height="100%" viewBox="0 0 2898 2898" version="1.1" xmlns="http://www.w3.org/2000/svg" xmlns:xlink="http://www.w3.org/1999/xlink" xml:space="preserve" xmlns:serif="http://www.serif.com/" style="fill-rule:evenodd;clip-rule:evenodd;stroke-linejoin:round;stroke-miterlimit:2;">
    <g transform="matrix(1,0,0,1,-28187.8,-14509)">
        <g transform="matrix(1,0,0,1,9502.11,6709.92)">
            <g>
                <g transform="matrix(5.26627,0,0,5.26627,17365.3,8824.19)">
                    <g transform="matrix(0.535839,0,0,0.535839,396.606,92.5238)">
                        <path d="M0,-27.995C4.954,-43.694 9.755,-59.444 14.81,-75.118C19.84,-59.444 24.667,-43.694 29.612,-27.986C46.115,-28.156 62.628,-28.359 79.132,-28.52C65.685,-18.934 52.212,-9.391 38.757,0.169C44.041,15.817 49.308,31.474 54.583,47.123C41.315,37.292 28.071,27.427 14.81,17.579C1.541,27.41 -11.686,37.292 -24.963,47.123C-19.704,31.466 -14.437,15.817 -9.137,0.177C-22.601,-9.391 -36.073,-18.934 -49.519,-28.52C-33.016,-28.359 -16.512,-28.156 0,-27.995" style="fill:rgb(35,54,110);fill-rule:nonzero;"></path>
                    </g>
                    <g transform="matrix(0.535839,0,0,0.535839,329.031,162.517)">
                        <path d="M0,-27.859C4.92,-43.626 9.848,-59.376 14.793,-75.135C19.722,-59.376 24.667,-43.626 29.587,-27.859C45.997,-27.986 62.407,-28.198 78.827,-28.384C94.399,-28.138 109.988,-28.003 125.56,-27.859C130.497,-43.626 135.426,-59.376 140.362,-75.143C145.307,-59.384 150.227,-43.617 155.164,-27.85C171.676,-27.994 188.188,-28.198 204.709,-28.376C191.262,-18.798 177.79,-9.255 164.335,0.305C169.559,15.97 174.893,31.602 180.118,47.267C166.858,37.427 153.623,27.571 140.362,17.732C127.11,27.563 113.866,37.427 100.606,47.259C105.839,31.602 111.157,15.97 116.398,0.305C103.459,-8.866 90.521,-18.07 77.573,-27.249C64.635,-18.07 51.696,-8.874 38.757,0.313C43.999,15.97 49.325,31.61 54.55,47.276C41.297,37.427 28.045,27.571 14.785,17.732C1.541,27.58 -11.719,37.427 -24.971,47.284C-19.747,31.61 -14.404,15.979 -9.171,0.313C-22.626,-9.255 -36.106,-18.782 -49.545,-28.384C-33.033,-28.198 -16.512,-27.994 0,-27.859" style="fill:rgb(35,54,110);fill-rule:nonzero;"></path>
                    </g>
                    <g transform="matrix(0.535839,0,0,0.535839,327.384,118.523)">
                        <path d="M0,-117.465L35.768,-117.465L35.768,-76.617C49.384,-76.617 63,-76.608 76.616,-76.617L76.616,-40.849L35.768,-40.849L35.768,0L0,0L0,-40.849L-40.848,-40.849C-40.848,-52.771 -40.84,-64.694 -40.848,-76.608C-27.232,-76.617 -13.616,-76.617 0,-76.617L0,-117.465Z" style="fill:rgb(195,31,58);fill-rule:nonzero;"></path>
                    </g>
                </g>
                <g transform="matrix(5.24921,0,0,5.24921,18198.8,8436.51)">
                    <g transform="matrix(1,0,0,1,315.195,254.171)">
                        <path d="M0,-121.369L13.565,-121.369L13.565,-10.517L68.318,-10.517C68.309,-7.012 68.309,-3.506 68.318,0C45.54,0 22.778,-0.009 0,0L0,-121.369Z" style="fill:rgb(35,54,110);fill-rule:nonzero;"></path>
                    </g>
                    <g transform="matrix(1,0,0,1,401.388,254.171)">
                        <path d="M0,-121.369L70.427,-121.369L70.427,-110.852C51.476,-110.861 32.516,-110.852 13.557,-110.861L13.557,-67.717L67.04,-67.717C67.031,-64.211 67.031,-60.714 67.04,-57.209L13.557,-57.209L13.557,0C9.035,-0.009 4.513,-0.009 0,0L0,-121.369Z" style="fill:rgb(35,54,110);fill-rule:nonzero;"></path>
                    </g>
                    <g transform="matrix(1,0,0,1,498.056,175.861)">
                        <path d="M0,35.251L59.012,35.251C49.215,13.023 39.418,-9.188 29.604,-31.407C19.73,-9.188 9.865,13.032 0,35.251M22.905,-43.05C28.02,-43.059 33.143,-43.059 38.266,-43.059C56.311,-2.591 74.373,37.851 92.434,78.31C87.701,78.31 82.968,78.301 78.234,78.31C73.34,67.463 68.445,56.615 63.559,45.768L-5.123,45.768C-10.017,56.615 -14.92,67.454 -19.806,78.31C-24.218,78.301 -28.612,78.31 -33.024,78.31C-14.395,37.851 4.276,-2.591 22.905,-43.05" style="fill:rgb(35,54,110);fill-rule:nonzero;"></path>
                    </g>
                </g>
                <g transform="matrix(12.0857,0,0,12.0857,44067.8,-9539.81)">
                    <g transform="matrix(16,0,0,16,-2078.07,1626.52)">
                        <path d="M0.369,-0.531C0.369,-0.575 0.359,-0.61 0.338,-0.635C0.317,-0.66 0.285,-0.672 0.241,-0.672C0.219,-0.672 0.2,-0.669 0.183,-0.662C0.166,-0.655 0.152,-0.646 0.141,-0.635C0.13,-0.623 0.121,-0.609 0.115,-0.594C0.109,-0.579 0.106,-0.562 0.106,-0.544C0.106,-0.509 0.115,-0.481 0.132,-0.462C0.149,-0.443 0.17,-0.427 0.196,-0.416C0.221,-0.404 0.249,-0.394 0.279,-0.385C0.309,-0.376 0.337,-0.365 0.363,-0.351C0.388,-0.337 0.409,-0.318 0.427,-0.295C0.444,-0.272 0.452,-0.239 0.452,-0.197C0.452,-0.162 0.447,-0.132 0.437,-0.106C0.426,-0.08 0.411,-0.058 0.393,-0.041C0.374,-0.023 0.351,-0.01 0.325,-0.001C0.298,0.008 0.269,0.012 0.236,0.012C0.169,0.012 0.117,-0.006 0.082,-0.041C0.046,-0.076 0.028,-0.129 0.028,-0.2L0.028,-0.221L0.092,-0.221L0.092,-0.194C0.092,-0.148 0.104,-0.111 0.128,-0.084C0.151,-0.056 0.187,-0.042 0.234,-0.042C0.279,-0.042 0.316,-0.054 0.345,-0.077C0.374,-0.1 0.388,-0.137 0.388,-0.187C0.388,-0.214 0.383,-0.236 0.373,-0.253C0.363,-0.27 0.35,-0.284 0.334,-0.295C0.318,-0.306 0.3,-0.316 0.279,-0.323C0.258,-0.33 0.236,-0.338 0.215,-0.345C0.194,-0.352 0.172,-0.36 0.152,-0.369C0.13,-0.378 0.112,-0.389 0.096,-0.403C0.08,-0.417 0.067,-0.435 0.057,-0.456C0.047,-0.477 0.042,-0.504 0.042,-0.537C0.042,-0.565 0.047,-0.591 0.056,-0.614C0.065,-0.637 0.077,-0.657 0.094,-0.674C0.111,-0.69 0.131,-0.703 0.156,-0.712C0.18,-0.721 0.208,-0.726 0.239,-0.726C0.306,-0.726 0.355,-0.709 0.386,-0.677C0.417,-0.644 0.433,-0.595 0.433,-0.531L0.369,-0.531Z" style="fill:rgb(35,54,110);fill-rule:nonzero;"></path>
                    </g>
                    <g transform="matrix(16,0,0,16,-2069.69,1626.52)">
                        <path d="M0.011,-0.714L0.075,-0.714L0.2,-0.086L0.202,-0.086L0.324,-0.714L0.398,-0.714L0.52,-0.086L0.522,-0.086L0.647,-0.714L0.711,-0.714L0.56,-0L0.48,-0L0.362,-0.628L0.36,-0.628L0.242,-0L0.162,-0L0.011,-0.714Z" style="fill:rgb(35,54,110);fill-rule:nonzero;"></path>
                    </g>
                    <g transform="matrix(16,0,0,16,-2057.43,1626.52)">
                        <rect x="0.06" y="-0.714" width="0.064" height="0.714" style="fill:rgb(35,54,110);fill-rule:nonzero;"></rect>
                    </g>
                    <g transform="matrix(16,0,0,16,-2053.79,1626.52)">
                        <path d="M0.369,-0.531C0.369,-0.575 0.359,-0.61 0.338,-0.635C0.317,-0.66 0.285,-0.672 0.241,-0.672C0.219,-0.672 0.2,-0.669 0.183,-0.662C0.166,-0.655 0.152,-0.646 0.141,-0.635C0.13,-0.623 0.121,-0.609 0.115,-0.594C0.109,-0.579 0.106,-0.562 0.106,-0.544C0.106,-0.509 0.115,-0.481 0.132,-0.462C0.149,-0.443 0.17,-0.427 0.196,-0.416C0.221,-0.404 0.249,-0.394 0.279,-0.385C0.309,-0.376 0.337,-0.365 0.363,-0.351C0.388,-0.337 0.409,-0.318 0.427,-0.295C0.444,-0.272 0.452,-0.239 0.452,-0.197C0.452,-0.162 0.447,-0.132 0.437,-0.106C0.426,-0.08 0.411,-0.058 0.393,-0.041C0.374,-0.023 0.351,-0.01 0.325,-0.001C0.298,0.008 0.269,0.012 0.236,0.012C0.169,0.012 0.117,-0.006 0.082,-0.041C0.046,-0.076 0.028,-0.129 0.028,-0.2L0.028,-0.221L0.092,-0.221L0.092,-0.194C0.092,-0.148 0.104,-0.111 0.128,-0.084C0.151,-0.056 0.187,-0.042 0.234,-0.042C0.279,-0.042 0.316,-0.054 0.345,-0.077C0.374,-0.1 0.388,-0.137 0.388,-0.187C0.388,-0.214 0.383,-0.236 0.373,-0.253C0.363,-0.27 0.35,-0.284 0.334,-0.295C0.318,-0.306 0.3,-0.316 0.279,-0.323C0.258,-0.33 0.236,-0.338 0.215,-0.345C0.194,-0.352 0.172,-0.36 0.152,-0.369C0.13,-0.378 0.112,-0.389 0.096,-0.403C0.08,-0.417 0.067,-0.435 0.057,-0.456C0.047,-0.477 0.042,-0.504 0.042,-0.537C0.042,-0.565 0.047,-0.591 0.056,-0.614C0.065,-0.637 0.077,-0.657 0.094,-0.674C0.111,-0.69 0.131,-0.703 0.156,-0.712C0.18,-0.721 0.208,-0.726 0.239,-0.726C0.306,-0.726 0.355,-0.709 0.386,-0.677C0.417,-0.644 0.433,-0.595 0.433,-0.531L0.369,-0.531Z" style="fill:rgb(35,54,110);fill-rule:nonzero;"></path>
                    </g>
                    <g transform="matrix(16,0,0,16,-2045.4,1626.52)">
                        <path d="M0.369,-0.531C0.369,-0.575 0.359,-0.61 0.338,-0.635C0.317,-0.66 0.285,-0.672 0.241,-0.672C0.219,-0.672 0.2,-0.669 0.183,-0.662C0.166,-0.655 0.152,-0.646 0.141,-0.635C0.13,-0.623 0.121,-0.609 0.115,-0.594C0.109,-0.579 0.106,-0.562 0.106,-0.544C0.106,-0.509 0.115,-0.481 0.132,-0.462C0.149,-0.443 0.17,-0.427 0.196,-0.416C0.221,-0.404 0.249,-0.394 0.279,-0.385C0.309,-0.376 0.337,-0.365 0.363,-0.351C0.388,-0.337 0.409,-0.318 0.427,-0.295C0.444,-0.272 0.452,-0.239 0.452,-0.197C0.452,-0.162 0.447,-0.132 0.437,-0.106C0.426,-0.08 0.411,-0.058 0.393,-0.041C0.374,-0.023 0.351,-0.01 0.325,-0.001C0.298,0.008 0.269,0.012 0.236,0.012C0.169,0.012 0.117,-0.006 0.082,-0.041C0.046,-0.076 0.028,-0.129 0.028,-0.2L0.028,-0.221L0.092,-0.221L0.092,-0.194C0.092,-0.148 0.104,-0.111 0.128,-0.084C0.151,-0.056 0.187,-0.042 0.234,-0.042C0.279,-0.042 0.316,-0.054 0.345,-0.077C0.374,-0.1 0.388,-0.137 0.388,-0.187C0.388,-0.214 0.383,-0.236 0.373,-0.253C0.363,-0.27 0.35,-0.284 0.334,-0.295C0.318,-0.306 0.3,-0.316 0.279,-0.323C0.258,-0.33 0.236,-0.338 0.215,-0.345C0.194,-0.352 0.172,-0.36 0.152,-0.369C0.13,-0.378 0.112,-0.389 0.096,-0.403C0.08,-0.417 0.067,-0.435 0.057,-0.456C0.047,-0.477 0.042,-0.504 0.042,-0.537C0.042,-0.565 0.047,-0.591 0.056,-0.614C0.065,-0.637 0.077,-0.657 0.094,-0.674C0.111,-0.69 0.131,-0.703 0.156,-0.712C0.18,-0.721 0.208,-0.726 0.239,-0.726C0.306,-0.726 0.355,-0.709 0.386,-0.677C0.417,-0.644 0.433,-0.595 0.433,-0.531L0.369,-0.531Z" style="fill:rgb(35,54,110);fill-rule:nonzero;"></path>
                    </g>
                    <g transform="matrix(16,0,0,16,-2032.7,1626.52)">
                        <path d="M0.011,-0.714L0.075,-0.714L0.2,-0.086L0.202,-0.086L0.324,-0.714L0.398,-0.714L0.52,-0.086L0.522,-0.086L0.647,-0.714L0.711,-0.714L0.56,-0L0.48,-0L0.362,-0.628L0.36,-0.628L0.242,-0L0.162,-0L0.011,-0.714Z" style="fill:rgb(35,54,110);fill-rule:nonzero;"></path>
                    </g>
                    <g transform="matrix(16,0,0,16,-2020.44,1626.52)">
                        <path d="M0.056,-0.714L0.41,-0.714L0.41,-0.66L0.12,-0.66L0.12,-0.4L0.391,-0.4L0.391,-0.346L0.12,-0.346L0.12,-0.054L0.419,-0.054L0.419,-0L0.056,-0L0.056,-0.714Z" style="fill:rgb(35,54,110);fill-rule:nonzero;"></path>
                    </g>
                    <g transform="matrix(16,0,0,16,-2012.63,1626.52)">
                        <path d="M0.21,-0.714L0.29,-0.714L0.501,-0L0.433,-0L0.375,-0.208L0.125,-0.208L0.067,-0L-0.001,-0L0.21,-0.714ZM0.361,-0.262L0.251,-0.664L0.249,-0.664L0.139,-0.262L0.361,-0.262Z" style="fill:rgb(35,54,110);fill-rule:nonzero;"></path>
                    </g>
                    <g transform="matrix(16,0,0,16,-2003.93,1626.52)">
                        <path d="M0.056,-0.714L0.12,-0.714L0.12,-0.054L0.416,-0.054L0.416,-0L0.056,-0L0.056,-0.714Z" style="fill:rgb(35,54,110);fill-rule:nonzero;"></path>
                    </g>
                    <g transform="matrix(16,0,0,16,-1996.41,1626.52)">
                        <path d="M0.19,-0.66L0.006,-0.66L0.006,-0.714L0.438,-0.714L0.438,-0.66L0.254,-0.66L0.254,-0L0.19,-0L0.19,-0.66Z" style="fill:rgb(35,54,110);fill-rule:nonzero;"></path>
                    </g>
                    <g transform="matrix(16,0,0,16,-1988.6,1626.52)">
                        <path d="M0.399,-0.356L0.12,-0.356L0.12,-0L0.056,-0L0.056,-0.714L0.12,-0.714L0.12,-0.41L0.399,-0.41L0.399,-0.714L0.463,-0.714L0.463,-0L0.399,-0L0.399,-0.356Z" style="fill:rgb(35,54,110);fill-rule:nonzero;"></path>
                    </g>
                    <g transform="matrix(16,0,0,16,-1975.27,1626.52)">
                        <path d="M0.062,-0.714L0.173,-0.714L0.345,-0.08L0.347,-0.08L0.519,-0.714L0.624,-0.714L0.624,-0L0.56,-0L0.56,-0.654L0.558,-0.654L0.373,-0L0.313,-0L0.128,-0.654L0.126,-0.654L0.126,-0L0.062,-0L0.062,-0.714Z" style="fill:rgb(35,54,110);fill-rule:nonzero;"></path>
                    </g>
                    <g transform="matrix(16,0,0,16,-1963.59,1626.52)">
                        <path d="M0.21,-0.714L0.29,-0.714L0.501,-0L0.433,-0L0.375,-0.208L0.125,-0.208L0.067,-0L-0.001,-0L0.21,-0.714ZM0.361,-0.262L0.251,-0.664L0.249,-0.664L0.139,-0.262L0.361,-0.262Z" style="fill:rgb(35,54,110);fill-rule:nonzero;"></path>
                    </g>
                    <g transform="matrix(16,0,0,16,-1954.89,1626.52)">
                        <path d="M0.056,-0.714L0.142,-0.714L0.415,-0.092L0.417,-0.092L0.417,-0.714L0.481,-0.714L0.481,-0L0.395,-0L0.122,-0.622L0.12,-0.622L0.12,-0L0.056,-0L0.056,-0.714Z" style="fill:rgb(35,54,110);fill-rule:nonzero;"></path>
                    </g>
                    <g transform="matrix(16,0,0,16,-1945.59,1626.52)">
                        <path d="M0.21,-0.714L0.29,-0.714L0.501,-0L0.433,-0L0.375,-0.208L0.125,-0.208L0.067,-0L-0.001,-0L0.21,-0.714ZM0.361,-0.262L0.251,-0.664L0.249,-0.664L0.139,-0.262L0.361,-0.262Z" style="fill:rgb(35,54,110);fill-rule:nonzero;"></path>
                    </g>
                    <g transform="matrix(16,0,0,16,-1936.89,1626.52)">
                        <path d="M0.258,-0.31L0.258,-0.364L0.487,-0.364L0.487,-0L0.437,-0L0.437,-0.118L0.435,-0.118C0.424,-0.078 0.404,-0.046 0.375,-0.023C0.346,0 0.314,0.012 0.278,0.012C0.205,0.012 0.148,-0.017 0.109,-0.077C0.07,-0.136 0.05,-0.229 0.05,-0.357C0.05,-0.485 0.07,-0.579 0.109,-0.638C0.148,-0.697 0.205,-0.726 0.278,-0.726C0.312,-0.726 0.341,-0.721 0.367,-0.71C0.392,-0.699 0.412,-0.685 0.429,-0.666C0.445,-0.647 0.458,-0.625 0.467,-0.599C0.475,-0.573 0.481,-0.545 0.483,-0.514L0.419,-0.514C0.419,-0.535 0.416,-0.556 0.41,-0.575C0.404,-0.594 0.395,-0.611 0.384,-0.626C0.372,-0.64 0.357,-0.651 0.34,-0.66C0.322,-0.668 0.301,-0.672 0.278,-0.672C0.253,-0.672 0.23,-0.667 0.21,-0.656C0.189,-0.645 0.172,-0.627 0.158,-0.602C0.144,-0.577 0.133,-0.544 0.126,-0.504C0.118,-0.464 0.114,-0.415 0.114,-0.357C0.114,-0.299 0.118,-0.25 0.126,-0.21C0.133,-0.17 0.144,-0.137 0.158,-0.113C0.172,-0.088 0.189,-0.069 0.21,-0.059C0.23,-0.048 0.253,-0.042 0.278,-0.042C0.326,-0.042 0.363,-0.063 0.389,-0.106C0.414,-0.148 0.427,-0.211 0.427,-0.295L0.427,-0.31L0.258,-0.31Z" style="fill:rgb(35,54,110);fill-rule:nonzero;"></path>
                    </g>
                    <g transform="matrix(16,0,0,16,-1927.59,1626.52)">
                        <path d="M0.056,-0.714L0.41,-0.714L0.41,-0.66L0.12,-0.66L0.12,-0.4L0.391,-0.4L0.391,-0.346L0.12,-0.346L0.12,-0.054L0.419,-0.054L0.419,-0L0.056,-0L0.056,-0.714Z" style="fill:rgb(35,54,110);fill-rule:nonzero;"></path>
                    </g>
                    <g transform="matrix(16,0,0,16,-1919.79,1626.52)">
                        <path d="M0.062,-0.714L0.173,-0.714L0.345,-0.08L0.347,-0.08L0.519,-0.714L0.624,-0.714L0.624,-0L0.56,-0L0.56,-0.654L0.558,-0.654L0.373,-0L0.313,-0L0.128,-0.654L0.126,-0.654L0.126,-0L0.062,-0L0.062,-0.714Z" style="fill:rgb(35,54,110);fill-rule:nonzero;"></path>
                    </g>
                    <g transform="matrix(16,0,0,16,-1908.11,1626.52)">
                        <path d="M0.056,-0.714L0.41,-0.714L0.41,-0.66L0.12,-0.66L0.12,-0.4L0.391,-0.4L0.391,-0.346L0.12,-0.346L0.12,-0.054L0.419,-0.054L0.419,-0L0.056,-0L0.056,-0.714Z" style="fill:rgb(35,54,110);fill-rule:nonzero;"></path>
                    </g>
                    <g transform="matrix(16,0,0,16,-1900.3,1626.52)">
                        <path d="M0.056,-0.714L0.142,-0.714L0.415,-0.092L0.417,-0.092L0.417,-0.714L0.481,-0.714L0.481,-0L0.395,-0L0.122,-0.622L0.12,-0.622L0.12,-0L0.056,-0L0.056,-0.714Z" style="fill:rgb(35,54,110);fill-rule:nonzero;"></path>
                    </g>
                    <g transform="matrix(16,0,0,16,-1891,1626.52)">
                        <path d="M0.19,-0.66L0.006,-0.66L0.006,-0.714L0.438,-0.714L0.438,-0.66L0.254,-0.66L0.254,-0L0.19,-0L0.19,-0.66Z" style="fill:rgb(35,54,110);fill-rule:nonzero;"></path>
                    </g>
                    <g transform="matrix(16,0,0,16,-2078.07,1642.52)">
                        <path d="M0.056,-0.714L0.41,-0.714L0.41,-0.66L0.12,-0.66L0.12,-0.4L0.391,-0.4L0.391,-0.346L0.12,-0.346L0.12,-0L0.056,-0L0.056,-0.714Z" style="fill:rgb(35,54,110);fill-rule:nonzero;"></path>
                    </g>
                    <g transform="matrix(16,0,0,16,-2070.55,1642.52)">
                        <path d="M0.114,-0.357C0.114,-0.299 0.118,-0.25 0.126,-0.21C0.133,-0.17 0.144,-0.137 0.158,-0.113C0.172,-0.088 0.189,-0.069 0.21,-0.059C0.23,-0.048 0.253,-0.042 0.278,-0.042C0.303,-0.042 0.326,-0.048 0.347,-0.059C0.367,-0.069 0.384,-0.088 0.398,-0.113C0.412,-0.137 0.423,-0.17 0.431,-0.21C0.438,-0.25 0.442,-0.299 0.442,-0.357C0.442,-0.415 0.438,-0.464 0.431,-0.504C0.423,-0.544 0.412,-0.577 0.398,-0.602C0.384,-0.627 0.367,-0.645 0.347,-0.656C0.326,-0.667 0.303,-0.672 0.278,-0.672C0.253,-0.672 0.23,-0.667 0.21,-0.656C0.189,-0.645 0.172,-0.627 0.158,-0.602C0.144,-0.577 0.133,-0.544 0.126,-0.504C0.118,-0.464 0.114,-0.415 0.114,-0.357ZM0.05,-0.357C0.05,-0.485 0.07,-0.579 0.109,-0.638C0.148,-0.697 0.205,-0.726 0.278,-0.726C0.351,-0.726 0.407,-0.697 0.447,-0.638C0.486,-0.579 0.506,-0.485 0.506,-0.357C0.506,-0.229 0.486,-0.136 0.447,-0.077C0.407,-0.017 0.351,0.012 0.278,0.012C0.205,0.012 0.148,-0.017 0.109,-0.077C0.07,-0.136 0.05,-0.229 0.05,-0.357Z" style="fill:rgb(35,54,110);fill-rule:nonzero;"></path>
                    </g>
                    <g transform="matrix(16,0,0,16,-2060.95,1642.52)">
                        <path d="M0.12,-0.38L0.23,-0.38C0.281,-0.38 0.32,-0.392 0.348,-0.415C0.376,-0.438 0.39,-0.473 0.39,-0.52C0.39,-0.542 0.388,-0.562 0.383,-0.579C0.378,-0.596 0.369,-0.611 0.357,-0.623C0.345,-0.635 0.329,-0.644 0.31,-0.651C0.29,-0.657 0.266,-0.66 0.237,-0.66L0.12,-0.66L0.12,-0.38ZM0.056,-0.714L0.269,-0.714C0.329,-0.714 0.375,-0.698 0.407,-0.667C0.438,-0.635 0.454,-0.591 0.454,-0.535C0.454,-0.514 0.452,-0.493 0.447,-0.473C0.442,-0.453 0.435,-0.435 0.425,-0.419C0.415,-0.403 0.402,-0.389 0.386,-0.378C0.369,-0.367 0.349,-0.359 0.325,-0.354L0.325,-0.352C0.37,-0.348 0.401,-0.333 0.419,-0.306C0.436,-0.279 0.446,-0.238 0.447,-0.183L0.449,-0.105C0.45,-0.086 0.452,-0.067 0.455,-0.049C0.458,-0.03 0.466,-0.014 0.479,-0L0.404,-0C0.397,-0.013 0.392,-0.028 0.39,-0.045C0.387,-0.062 0.386,-0.081 0.385,-0.1L0.383,-0.16C0.382,-0.191 0.379,-0.218 0.375,-0.239C0.371,-0.26 0.364,-0.278 0.354,-0.291C0.343,-0.304 0.329,-0.313 0.311,-0.318C0.293,-0.323 0.27,-0.326 0.241,-0.326L0.12,-0.326L0.12,-0L0.056,-0L0.056,-0.714Z" style="fill:rgb(35,54,110);fill-rule:nonzero;"></path>
                    </g>
                    <g transform="matrix(16,0,0,16,-2047.93,1642.52)">
                        <path d="M0.046,-0.714L0.11,-0.714L0.11,-0.201C0.11,-0.095 0.157,-0.042 0.25,-0.042C0.343,-0.042 0.39,-0.095 0.39,-0.201L0.39,-0.714L0.454,-0.714L0.454,-0.2C0.454,-0.125 0.437,-0.071 0.402,-0.038C0.367,-0.005 0.316,0.012 0.25,0.012C0.184,0.012 0.133,-0.005 0.099,-0.038C0.064,-0.071 0.046,-0.125 0.046,-0.2L0.046,-0.714Z" style="fill:rgb(35,54,110);fill-rule:nonzero;"></path>
                    </g>
                    <g transform="matrix(16,0,0,16,-2039.23,1642.52)">
                        <path d="M0.369,-0.531C0.369,-0.575 0.359,-0.61 0.338,-0.635C0.317,-0.66 0.285,-0.672 0.241,-0.672C0.219,-0.672 0.2,-0.669 0.183,-0.662C0.166,-0.655 0.152,-0.646 0.141,-0.635C0.13,-0.623 0.121,-0.609 0.115,-0.594C0.109,-0.579 0.106,-0.562 0.106,-0.544C0.106,-0.509 0.115,-0.481 0.132,-0.462C0.149,-0.443 0.17,-0.427 0.196,-0.416C0.221,-0.404 0.249,-0.394 0.279,-0.385C0.309,-0.376 0.337,-0.365 0.363,-0.351C0.388,-0.337 0.409,-0.318 0.427,-0.295C0.444,-0.272 0.452,-0.239 0.452,-0.197C0.452,-0.162 0.447,-0.132 0.437,-0.106C0.426,-0.08 0.411,-0.058 0.393,-0.041C0.374,-0.023 0.351,-0.01 0.325,-0.001C0.298,0.008 0.269,0.012 0.236,0.012C0.169,0.012 0.117,-0.006 0.082,-0.041C0.046,-0.076 0.028,-0.129 0.028,-0.2L0.028,-0.221L0.092,-0.221L0.092,-0.194C0.092,-0.148 0.104,-0.111 0.128,-0.084C0.151,-0.056 0.187,-0.042 0.234,-0.042C0.279,-0.042 0.316,-0.054 0.345,-0.077C0.374,-0.1 0.388,-0.137 0.388,-0.187C0.388,-0.214 0.383,-0.236 0.373,-0.253C0.363,-0.27 0.35,-0.284 0.334,-0.295C0.318,-0.306 0.3,-0.316 0.279,-0.323C0.258,-0.33 0.236,-0.338 0.215,-0.345C0.194,-0.352 0.172,-0.36 0.152,-0.369C0.13,-0.378 0.112,-0.389 0.096,-0.403C0.08,-0.417 0.067,-0.435 0.057,-0.456C0.047,-0.477 0.042,-0.504 0.042,-0.537C0.042,-0.565 0.047,-0.591 0.056,-0.614C0.065,-0.637 0.077,-0.657 0.094,-0.674C0.111,-0.69 0.131,-0.703 0.156,-0.712C0.18,-0.721 0.208,-0.726 0.239,-0.726C0.306,-0.726 0.355,-0.709 0.386,-0.677C0.417,-0.644 0.433,-0.595 0.433,-0.531L0.369,-0.531Z" style="fill:rgb(35,54,110);fill-rule:nonzero;"></path>
                    </g>
                    <g transform="matrix(16,0,0,16,-2026.52,1642.52)">
                        <path d="M0.49,-0.242C0.485,-0.16 0.465,-0.097 0.429,-0.054C0.393,-0.01 0.343,0.012 0.278,0.012C0.205,0.012 0.148,-0.017 0.109,-0.077C0.07,-0.136 0.05,-0.229 0.05,-0.357C0.05,-0.485 0.07,-0.579 0.109,-0.638C0.148,-0.697 0.205,-0.726 0.278,-0.726C0.314,-0.726 0.345,-0.72 0.371,-0.708C0.397,-0.696 0.418,-0.68 0.435,-0.66C0.452,-0.64 0.464,-0.617 0.472,-0.59C0.479,-0.563 0.483,-0.535 0.483,-0.506L0.419,-0.506C0.419,-0.555 0.407,-0.595 0.383,-0.626C0.359,-0.657 0.324,-0.672 0.278,-0.672C0.253,-0.672 0.23,-0.667 0.21,-0.656C0.189,-0.645 0.172,-0.627 0.158,-0.602C0.144,-0.577 0.133,-0.544 0.126,-0.504C0.118,-0.464 0.114,-0.415 0.114,-0.357C0.114,-0.299 0.118,-0.25 0.126,-0.21C0.133,-0.17 0.144,-0.137 0.158,-0.113C0.172,-0.088 0.189,-0.069 0.21,-0.059C0.23,-0.048 0.253,-0.042 0.278,-0.042C0.323,-0.042 0.359,-0.06 0.384,-0.096C0.409,-0.131 0.423,-0.18 0.426,-0.242L0.49,-0.242Z" style="fill:rgb(35,54,110);fill-rule:nonzero;"></path>
                    </g>
                    <g transform="matrix(16,0,0,16,-2017.51,1642.52)">
                        <path d="M0.056,-0.714L0.12,-0.714L0.12,-0.054L0.416,-0.054L0.416,-0L0.056,-0L0.056,-0.714Z" style="fill:rgb(35,54,110);fill-rule:nonzero;"></path>
                    </g>
                    <g transform="matrix(16,0,0,16,-2009.99,1642.52)">
                        <rect x="0.06" y="-0.714" width="0.064" height="0.714" style="fill:rgb(35,54,110);fill-rule:nonzero;"></rect>
                    </g>
                    <g transform="matrix(16,0,0,16,-2006.35,1642.52)">
                        <path d="M0.056,-0.714L0.41,-0.714L0.41,-0.66L0.12,-0.66L0.12,-0.4L0.391,-0.4L0.391,-0.346L0.12,-0.346L0.12,-0.054L0.419,-0.054L0.419,-0L0.056,-0L0.056,-0.714Z" style="fill:rgb(35,54,110);fill-rule:nonzero;"></path>
                    </g>
                    <g transform="matrix(16,0,0,16,-1998.54,1642.52)">
                        <path d="M0.056,-0.714L0.142,-0.714L0.415,-0.092L0.417,-0.092L0.417,-0.714L0.481,-0.714L0.481,-0L0.395,-0L0.122,-0.622L0.12,-0.622L0.12,-0L0.056,-0L0.056,-0.714Z" style="fill:rgb(35,54,110);fill-rule:nonzero;"></path>
                    </g>
                    <g transform="matrix(16,0,0,16,-1989.24,1642.52)">
                        <path d="M0.19,-0.66L0.006,-0.66L0.006,-0.714L0.438,-0.714L0.438,-0.66L0.254,-0.66L0.254,-0L0.19,-0L0.19,-0.66Z" style="fill:rgb(35,54,110);fill-rule:nonzero;"></path>
                    </g>
                    <g transform="matrix(16,0,0,16,-1981.43,1642.52)">
                        <path d="M0.369,-0.531C0.369,-0.575 0.359,-0.61 0.338,-0.635C0.317,-0.66 0.285,-0.672 0.241,-0.672C0.219,-0.672 0.2,-0.669 0.183,-0.662C0.166,-0.655 0.152,-0.646 0.141,-0.635C0.13,-0.623 0.121,-0.609 0.115,-0.594C0.109,-0.579 0.106,-0.562 0.106,-0.544C0.106,-0.509 0.115,-0.481 0.132,-0.462C0.149,-0.443 0.17,-0.427 0.196,-0.416C0.221,-0.404 0.249,-0.394 0.279,-0.385C0.309,-0.376 0.337,-0.365 0.363,-0.351C0.388,-0.337 0.409,-0.318 0.427,-0.295C0.444,-0.272 0.452,-0.239 0.452,-0.197C0.452,-0.162 0.447,-0.132 0.437,-0.106C0.426,-0.08 0.411,-0.058 0.393,-0.041C0.374,-0.023 0.351,-0.01 0.325,-0.001C0.298,0.008 0.269,0.012 0.236,0.012C0.169,0.012 0.117,-0.006 0.082,-0.041C0.046,-0.076 0.028,-0.129 0.028,-0.2L0.028,-0.221L0.092,-0.221L0.092,-0.194C0.092,-0.148 0.104,-0.111 0.128,-0.084C0.151,-0.056 0.187,-0.042 0.234,-0.042C0.279,-0.042 0.316,-0.054 0.345,-0.077C0.374,-0.1 0.388,-0.137 0.388,-0.187C0.388,-0.214 0.383,-0.236 0.373,-0.253C0.363,-0.27 0.35,-0.284 0.334,-0.295C0.318,-0.306 0.3,-0.316 0.279,-0.323C0.258,-0.33 0.236,-0.338 0.215,-0.345C0.194,-0.352 0.172,-0.36 0.152,-0.369C0.13,-0.378 0.112,-0.389 0.096,-0.403C0.08,-0.417 0.067,-0.435 0.057,-0.456C0.047,-0.477 0.042,-0.504 0.042,-0.537C0.042,-0.565 0.047,-0.591 0.056,-0.614C0.065,-0.637 0.077,-0.657 0.094,-0.674C0.111,-0.69 0.131,-0.703 0.156,-0.712C0.18,-0.721 0.208,-0.726 0.239,-0.726C0.306,-0.726 0.355,-0.709 0.386,-0.677C0.417,-0.644 0.433,-0.595 0.433,-0.531L0.369,-0.531Z" style="fill:rgb(35,54,110);fill-rule:nonzero;"></path>
                    </g>
                </g>
                <g transform="matrix(1,0,0,1,15913.3,8335.3)">
                    <path d="M5669.59,2360.99L2772.33,2360.99L2772.33,-536.27L5669.59,-536.27L5669.59,2360.99ZM5619.59,-486.27C5619.59,-486.27 2822.33,-486.27 2822.33,-486.27C2822.33,-486.27 2822.33,2310.99 2822.33,2310.99C2822.33,2310.99 5619.59,2310.99 5619.59,2310.99L5619.59,-486.27Z" style="fill:rgb(35,54,110);"></path>
                </g>
            </g>
        </g>
    </g>
</svg>